<?xml version="1.0" encoding="utf-8"?>
<!-- Generator: Adobe Illustrator 21.1.0, SVG Export Plug-In . SVG Version: 6.00 Build 0)  -->
<svg version="1.1" xmlns="http://www.w3.org/2000/svg" xmlns:xlink="http://www.w3.org/1999/xlink" x="0px" y="0px"
	 viewBox="0 0 330 41" style="enable-background:new 0 0 330 41;" xml:space="preserve">
<style type="text/css">
    /* Styling */
    .title { fill: #ffffff; }
    .sub-title { fill: #ffffff; opacity:0.4; }
    /* Visibility */
    .visible { display: inline; }
    .hidden { display: none; }
</style>
<g id="Docs">
    <path id="docs" class="sub-title" d="M0,30.8h3.1c2.6,0,4.3,1.7,4.3,4.4s-1.7,4.4-4.3,4.4H0V30.8z M3,38c1.7,0,2.6-1.1,2.6-2.8
        S4.7,32.4,3,32.4H1.8v5.5L3,38L3,38z M12.8,39.7c-2.4,0-4.1-1.9-4.1-4.5s1.7-4.5,4.1-4.5s4.1,1.9,4.1,4.5
        C16.9,37.8,15.2,39.7,12.8,39.7z M12.8,32.3c-1.4,0-2.3,1.2-2.3,2.9s0.9,2.9,2.3,2.9s2.3-1.2,2.3-2.9S14.2,32.3,12.8,32.3z
        M22.5,30.7c1,0,1.7,0.3,2.3,0.7v1.8c-0.7-0.6-1.4-0.9-2.2-0.9c-1.6,0-2.6,1.1-2.6,2.8s1,2.8,2.6,2.8c0.8,0,1.5-0.3,2.2-0.8v1.8
        c-0.6,0.4-1.3,0.7-2.3,0.7c-2.5,0-4.3-1.8-4.3-4.5C18.2,32.5,20,30.7,22.5,30.7z M26.6,36.1v-5.2h1.8v5c0,1.5,0.7,2.2,1.8,2.2
        s1.8-0.7,1.8-2.2v-5h1.8v5.2c0,2.4-1.4,3.6-3.6,3.6C28.1,39.7,26.6,38.5,26.6,36.1z M40.2,37.7L37.7,34v5.6h-1.8v-8.7h1.7l2.6,4.1
        l2.6-4.1h1.7v8.7h-1.8V34L40.2,37.7L40.2,37.7z M52.7,30.8v1.6h-4.1v1.9h3.7v1.5h-3.7v2.1h4.1v1.6h-5.9v-8.7
        C46.8,30.8,52.7,30.8,52.7,30.8z M61.9,39.6h-1.4l-4.1-5.8v5.8h-1.7v-8.7h1.7l3.8,5.5v-5.5h1.7V39.6z M63.4,30.8h7.4v1.6H68v7.1
        h-1.8v-7.1h-2.8C63.4,32.4,63.4,30.8,63.4,30.8z M75.9,30.8l3.3,8.7h-1.8l-0.8-2.1h-3.3l-0.8,2.1h-1.8l3.3-8.7
        C74,30.8,75.9,30.8,75.9,30.8z M73.9,35.9H76L74.9,33L73.9,35.9z M79.1,30.8h7.4v1.6h-2.8v7.1h-1.8v-7.1h-2.8
        C79.1,32.4,79.1,30.8,79.1,30.8z M89.8,39.6H88v-8.7h1.8V39.6z M95.6,39.7c-2.4,0-4.1-1.9-4.1-4.5s1.7-4.5,4.1-4.5s4.1,1.9,4.1,4.5
        C99.8,37.8,98.1,39.7,95.6,39.7z M95.6,32.3c-1.4,0-2.3,1.2-2.3,2.9s0.9,2.9,2.3,2.9s2.3-1.2,2.3-2.9S97,32.3,95.6,32.3z
        M108.8,39.6h-1.4l-4.1-5.8v5.8h-1.7v-8.7h1.7l3.8,5.5v-5.5h1.7V39.6z M118.7,30.8l3.3,8.7h-1.8l-0.8-2.1h-3.3l-0.8,2.1h-1.8
        l3.3-8.7C116.8,30.8,118.7,30.8,118.7,30.8z M116.8,35.9h2.1l-1.1-2.9L116.8,35.9z M130.8,39.6h-1.4l-4.1-5.8v5.8h-1.7v-8.7h1.7
        l3.8,5.5v-5.5h1.7V39.6z M133,30.8h3.1c2.6,0,4.3,1.7,4.3,4.4s-1.7,4.4-4.3,4.4H133V30.8z M136,38c1.7,0,2.6-1.1,2.6-2.8
        s-0.9-2.8-2.6-2.8h-1.2v5.5L136,38L136,38z M149.9,30.8l3.3,8.7h-1.8l-0.8-2.1h-3.3l-0.8,2.1h-1.8l3.3-8.7
        C148,30.8,149.9,30.8,149.9,30.8z M147.9,35.9h2.1l-1.1-2.9L147.9,35.9z M156.4,36.5v3h-1.8v-8.7h3.5c1.8,0,3.1,1,3.1,2.9
        c0,1.8-1.2,2.8-3.1,2.8H156.4z M158.1,32.4h-1.6V35h1.6c0.9,0,1.4-0.5,1.4-1.3C159.4,32.9,159,32.4,158.1,32.4z M164.6,39.6h-1.8
        v-8.7h1.8V39.6z M171.8,36.3v3.3H170v-8.7h3.6c1.8,0,3.1,1,3.1,2.8c0,1.4-0.8,2.3-2,2.6l2.3,3.4h-2l-2.2-3.3L171.8,36.3L171.8,36.3
        z M171.8,34.8h1.7c0.9,0,1.4-0.5,1.4-1.2s-0.5-1.2-1.4-1.2h-1.7V34.8z M184.3,30.8v1.6h-4.1v1.9h3.7v1.5h-3.7v2.1h4.1v1.6h-5.9
        v-8.7C178.4,30.8,184.3,30.8,184.3,30.8z M186.3,39.6v-8.7h5.8v1.6h-4v2.2h3.7v1.6h-3.7v3.3C188.1,39.6,186.3,39.6,186.3,39.6z
        M199.7,30.8v1.6h-4.1v1.9h3.7v1.5h-3.7v2.1h4.1v1.6h-5.9v-8.7C193.8,30.8,199.7,30.8,199.7,30.8z M203.5,36.3v3.3h-1.8v-8.7h3.6
        c1.8,0,3.1,1,3.1,2.8c0,1.4-0.8,2.3-2,2.6l2.3,3.4h-2l-2.2-3.3L203.5,36.3L203.5,36.3z M203.5,34.8h1.7c0.9,0,1.4-0.5,1.4-1.2
        s-0.5-1.2-1.4-1.2h-1.7V34.8z M216,30.8v1.6h-4.1v1.9h3.7v1.5h-3.7v2.1h4.1v1.6h-5.9v-8.7C210.1,30.8,216,30.8,216,30.8z
        M225.3,39.6h-1.4l-4.1-5.8v5.8H218v-8.7h1.7l3.8,5.5v-5.5h1.7v8.7H225.3z M231.4,30.7c1,0,1.7,0.3,2.3,0.7v1.8
        c-0.7-0.6-1.4-0.9-2.2-0.9c-1.6,0-2.6,1.1-2.6,2.8s1,2.8,2.6,2.8c0.8,0,1.5-0.3,2.2-0.8v1.8c-0.6,0.4-1.3,0.7-2.3,0.7
        c-2.5,0-4.3-1.8-4.3-4.5C227.1,32.5,228.9,30.7,231.4,30.7z M241.5,30.8v1.6h-4.1v1.9h3.7v1.5h-3.7v2.1h4.1v1.6h-5.9v-8.7
        C235.6,30.8,241.5,30.8,241.5,30.8z"/>
</g>
<g id="Document_Processing">
	<path class="title" d="M16.5,2.7H9.1v18.7H7.4V2.7H0V1.2h16.5V2.7z M26.7,13.7v0.6H16.1c0,4,2.3,6,5.4,6c1.7,0,2.9-0.4,4.1-1.5v1.6
		c-1.1,0.9-2.5,1.3-4.3,1.3c-4.1,0-6.8-2.9-6.8-7.5c0-4.5,2.4-7.8,6.3-7.8C24.7,6.5,26.7,9.4,26.7,13.7z M25.1,12.9
		c-0.1-2.6-1.3-5-4.2-5c-2.4,0-4.3,1.8-4.7,5H25.1z M29.1,21.5h1.7V0h-1.7V21.5z M45.4,13.7v0.6H34.8c0,4,2.3,6,5.4,6
		c1.7,0,2.9-0.4,4.1-1.5v1.6c-1.1,0.9-2.5,1.3-4.3,1.3c-4.1,0-6.8-2.9-6.8-7.5c0-4.5,2.4-7.8,6.3-7.8C43.4,6.5,45.4,9.4,45.4,13.7z
		 M43.8,12.9c-0.1-2.6-1.3-5-4.2-5c-2.4,0-4.3,1.8-4.7,5H43.8z M49.4,9.2V6.8h-1.7v14.7h1.7V11.2c0.7-1.9,2.1-3.2,3.9-3.2
		c0.5,0,1,0.1,1.4,0.3V6.7c-0.3-0.1-0.7-0.2-1.3-0.2C51.6,6.5,50.1,7.7,49.4,9.2z M57.3,1.2c-0.6,0-1.1,0.5-1.1,1.1
		c0,0.6,0.5,1.1,1.1,1.1s1.1-0.5,1.1-1.1C58.4,1.8,57.9,1.2,57.3,1.2z M56.5,21.5h1.7V6.8h-1.7V21.5z M72.6,6.8h-2.1l-7.4,6.4V0
		h-1.7v21.5h1.7v-7.5l7.6,7.5h2l-8-8L72.6,6.8z M100.2,11.3c0,6.2-4,10.1-9.8,10.1h-6.2V1.2h6.2C96.2,1.2,100.2,5.2,100.2,11.3z
		 M98.5,11.3c0-5.2-3.1-8.6-8.1-8.6h-4.5v17.2h4.5C95.3,19.9,98.5,16.5,98.5,11.3z M114.8,14.1c0,4.5-2.6,7.6-6.5,7.6
		c-3.9,0-6.5-3.1-6.5-7.6c0-4.5,2.6-7.6,6.5-7.6C112.2,6.5,114.8,9.6,114.8,14.1z M113.2,14.1c0-3.7-1.9-6.2-4.9-6.2
		c-2.9,0-4.8,2.5-4.8,6.2c0,3.7,1.9,6.2,4.8,6.2C111.3,20.3,113.2,17.8,113.2,14.1z M116.4,14.1c0,4.6,2.9,7.6,6.8,7.6
		c1.4,0,2.9-0.4,3.9-1.3v-1.7c-1.2,1.1-2.4,1.5-3.8,1.5c-2.9,0-5.3-2.3-5.3-6.1s2.3-6.1,5.3-6.1c1.5,0,2.7,0.4,3.8,1.5V7.8
		c-1-0.9-2.5-1.3-3.9-1.3C119.3,6.5,116.4,9.5,116.4,14.1z M138.9,17.1c-0.7,1.8-2.3,3.2-4.4,3.2c-2.6,0-3.8-1.7-3.8-4V6.8h-1.6v9.7
		c0,3.1,1.8,5.3,5.1,5.3c2.1,0,3.8-1.3,4.7-2.6v2.3h1.6V6.8h-1.6V17.1z M158.4,6.5c-2.1,0-3.7,1.4-4.6,2.8c-0.6-1.7-2-2.8-4.1-2.8
		c-2,0-3.5,1.2-4.2,2.5V6.8h-1.7v14.7h1.7V11.1c0.6-1.8,2.1-3.1,3.9-3.1c2.1,0,3.1,1.5,3.1,3.8v9.7h1.7V11.1
		c0.6-1.8,2.1-3.1,3.9-3.1c2.1,0,3.1,1.5,3.1,3.8v9.7h1.6v-9.9C162.9,8.6,161.4,6.5,158.4,6.5z M177.5,13.7v0.6h-10.5
		c0,4,2.3,6,5.4,6c1.7,0,2.9-0.4,4.1-1.5v1.6c-1.1,0.9-2.5,1.3-4.3,1.3c-4.1,0-6.8-2.9-6.8-7.5c0-4.5,2.4-7.8,6.3-7.8
		C175.5,6.5,177.5,9.4,177.5,13.7z M175.9,12.9c-0.1-2.6-1.3-5-4.2-5c-2.4,0-4.3,1.8-4.7,5H175.9z M186.2,6.5
		c-2.1,0-3.8,1.3-4.7,2.6V6.8h-1.7v14.7h1.7V11.2c0.7-1.8,2.4-3.2,4.4-3.2c2.6,0,3.8,1.7,3.8,4v9.5h1.6v-9.7
		C191.3,8.7,189.5,6.5,186.2,6.5z M197.4,3h-1.7v3.8h-3.1v1.4h3.1v13.3h1.7V8.2h3.5V6.8h-3.5V3z M224.1,6.9c0,3.8-2.6,5.8-6.6,5.8
		H212v8.8h-1.7V1.2h7.2C221.5,1.2,224.1,3.2,224.1,6.9z M222.4,6.9c0-2.6-1.8-4.2-5-4.2H212v8.5h5.4C220.6,11.2,222.4,9.6,222.4,6.9
		z M227.7,9.2V6.8h-1.7v14.7h1.7V11.2c0.7-1.9,2.1-3.2,3.9-3.2c0.5,0,1,0.1,1.4,0.3V6.7c-0.3-0.1-0.7-0.2-1.3-0.2
		C229.9,6.5,228.4,7.7,227.7,9.2z M246.3,14.1c0,4.5-2.6,7.6-6.5,7.6c-3.9,0-6.5-3.1-6.5-7.6c0-4.5,2.6-7.6,6.5-7.6
		C243.7,6.5,246.3,9.6,246.3,14.1z M244.7,14.1c0-3.7-1.9-6.2-4.9-6.2c-2.9,0-4.8,2.5-4.8,6.2c0,3.7,1.9,6.2,4.8,6.2
		C242.8,20.3,244.7,17.8,244.7,14.1z M247.9,14.1c0,4.6,2.9,7.6,6.8,7.6c1.4,0,2.9-0.4,3.9-1.3v-1.7c-1.2,1.1-2.4,1.5-3.8,1.5
		c-2.9,0-5.3-2.3-5.3-6.1s2.3-6.1,5.3-6.1c1.5,0,2.7,0.4,3.8,1.5V7.8c-1-0.9-2.5-1.3-3.9-1.3C250.9,6.5,247.9,9.5,247.9,14.1z
		 M272,13.7v0.6h-10.5c0,4,2.3,6,5.4,6c1.7,0,2.9-0.4,4.1-1.5v1.6c-1.1,0.9-2.5,1.3-4.3,1.3c-4.1,0-6.8-2.9-6.8-7.5
		c0-4.5,2.4-7.8,6.3-7.8C270,6.5,272,9.4,272,13.7z M270.4,12.9c-0.1-2.6-1.3-5-4.2-5c-2.4,0-4.3,1.8-4.7,5H270.4z M280.2,13.8
		l-2.5-1c-1.6-0.6-2.5-1.1-2.5-2.5c0-1.6,1.5-2.4,3.2-2.4c1.8,0,3.1,0.7,4.3,1.7V7.8c-1.2-0.9-2.7-1.3-4.3-1.3
		c-2.7,0-4.9,1.4-4.9,3.9c0,2.2,1.4,3.2,3.4,3.9l2.4,0.9c1.5,0.5,2.3,1.3,2.3,2.5c0,1.9-1.7,2.6-3.5,2.6c-1.9,0-3.4-0.7-4.7-1.8v1.8
		c1,0.8,2.7,1.5,4.7,1.5c2.8,0,5.2-1.5,5.2-4.1C283.3,15.8,282.2,14.5,280.2,13.8z M291.6,13.8l-2.5-1c-1.6-0.6-2.5-1.1-2.5-2.5
		c0-1.6,1.5-2.4,3.2-2.4c1.8,0,3.1,0.7,4.3,1.7V7.8c-1.2-0.9-2.7-1.3-4.3-1.3c-2.7,0-4.9,1.4-4.9,3.9c0,2.2,1.4,3.2,3.4,3.9l2.4,0.9
		c1.5,0.5,2.3,1.3,2.3,2.5c0,1.9-1.7,2.6-3.5,2.6c-1.9,0-3.4-0.7-4.7-1.8v1.8c1,0.8,2.7,1.5,4.7,1.5c2.8,0,5.2-1.5,5.2-4.1
		C294.7,15.8,293.6,14.5,291.6,13.8z M297.9,1.2c-0.6,0-1.1,0.5-1.1,1.1c0,0.6,0.5,1.1,1.1,1.1c0.6,0,1.1-0.5,1.1-1.1
		C299,1.8,298.5,1.2,297.9,1.2z M297,21.5h1.7V6.8H297V21.5z M308.4,6.5c-2.1,0-3.8,1.3-4.7,2.6V6.8H302v14.7h1.7V11.2
		c0.7-1.8,2.4-3.2,4.4-3.2c2.6,0,3.8,1.7,3.8,4v9.5h1.6v-9.7C313.5,8.7,311.7,6.5,308.4,6.5z M328.3,6.8v13.6c0,4.9-3.2,7-6.7,7
		c-1.9,0-3.5-0.6-4.6-1.4v-1.9c1.5,1.3,3,1.8,4.6,1.8c2.9,0,5.1-1.7,5.1-5.4V19c-0.8,1.2-2.5,2.4-4.5,2.4c-4.3,0-6.3-3.5-6.3-7.5
		c0-3.9,2-7.5,6.3-7.5c2,0,3.7,1.2,4.5,2.4V6.8H328.3z M326.7,10.9c-1-1.8-2.6-2.8-4.4-2.8c-3,0-4.8,2.5-4.8,5.9c0,3.5,1.8,6,4.8,6
		c1.8,0,3.4-1.1,4.4-2.8V10.9z M77.2,6.1l0.5,0.8H77l-0.4-0.7h-0.2v0.7h-0.6V4.7h1.1c0.5,0,0.8,0.3,0.8,0.8
		C77.6,5.8,77.4,6,77.2,6.1z M77,5.4c0-0.2-0.1-0.3-0.3-0.3h-0.4v0.5h0.4C76.9,5.7,77,5.6,77,5.4z M78.7,5.8c0,1.3-1,2.2-2.1,2.2
		S74.5,7,74.5,5.8c0-1.3,1-2.2,2.1-2.2S78.7,4.5,78.7,5.8z M78.3,5.8c0-1-0.8-1.8-1.7-1.8c-1,0-1.7,0.7-1.7,1.8c0,1,0.8,1.8,1.7,1.8
		C77.6,7.6,78.3,6.8,78.3,5.8z"/>
</g>
</svg>